<svg xmlns="http://www.w3.org/2000/svg" width="512" height="512" fill="#ffffff" viewBox="0 0 5120 5120">
    <g fill="#000000" style="transform: none;">
        <g>
            <path id="p9UZlP52P"
                d="M1153 5113 c-28 -6 -69 -47 -77 -78 -4 -14 0 -41 8 -60 28 -66 11 -65 731 -65 l645 0 0 -110 0 -110 -1012 -2 -1013 -3 -65 -23 c-168 -60 -293 -192 -347 -367 -17 -57 -18 -130 -18 -1470 l0 -1410 22 -70 c52 -164 187 -302 352 -357 l66 -23 934 -3 935 -3 -247 -247 c-231 -232 -247 -250 -247 -284 0 -55 45 -98 101 -98 l43 0 293 292 c227 227 296 291 307 283 8 -6 184 -201 391 -435 208 -234 387 -433 399 -442 32 -26 89 -23 125 8 26 21 31 33 31 68 0 36 -7 51 -42 92 -24 27 -186 210 -360 406 l-318 357 943 3 942 3 66 23 c165 55 300 193 352 357 l22 70 0 1410 c0 1340 -1 1413 -18 1470 -54 175 -179 307 -347 367 l-65 23 -1012 3 -1013 2 0 110 0 110 648 0 c728 0 702 -2 730 71 12 32 12 41 -2 71 -33 68 84 63 -1461 64 -770 1 -1410 -1 -1422 -3z m3575 -661 c66 -35 119 -88 149 -150 l28 -57 3 -1395 c2 -1060 0 -1406 -9 -1440 -28 -103 -122 -199 -225 -228 -60 -17 -4168 -17 -4228 0 -101 29 -195 123 -224 224 -9 31 -12 390 -12 1421 0 1523 -4 1437 63 1525 36 48 112 103 161 117 18 6 892 9 2141 8 l2110 -2 43 -23z" />
            <path id="p1AkiplT0b"
                d="M2390 3925 c-353 -71 -625 -328 -722 -682 -17 -62 -21 -108 -22 -226 l-1 -148 -51 -15 c-151 -44 -282 -172 -337 -332 -27 -79 -28 -227 -3 -301 40 -117 118 -218 217 -282 79 -50 145 -71 245 -77 103 -5 189 15 280 65 60 33 154 125 182 178 36 69 31 67 112 41 169 -54 371 -54 540 0 81 26 76 28 112 -41 28 -53 122 -145 182 -178 168 -93 368 -88 525 12 99 64 177 165 217 282 25 74 24 222 -3 301 -55 160 -186 288 -337 332 l-51 15 -1 148 c-1 118 -5 164 -22 226 -115 420 -477 700 -900 696 -54 0 -126 -7 -162 -14z m293 -200 c278 -48 497 -250 568 -523 25 -95 27 -249 5 -342 -22 -92 -20 -115 12 -151 27 -30 34 -32 118 -39 105 -9 149 -28 212 -91 87 -88 108 -233 51 -347 -33 -66 -78 -110 -149 -144 -64 -32 -176 -31 -246 0 -90 41 -161 132 -179 234 -8 44 -45 84 -86 93 -22 5 -50 -3 -116 -34 -114 -52 -196 -71 -313 -71 -117 0 -199 19 -313 71 -66 31 -94 39 -116 34 -41 -9 -78 -49 -86 -93 -18 -102 -89 -193 -179 -234 -70 -31 -182 -32 -246 0 -71 34 -116 78 -149 144 -57 114 -36 259 51 347 63 63 107 82 212 91 84 7 91 9 118 39 32 36 34 59 12 151 -22 93 -20 247 5 342 70 269 289 473 561 523 100 18 151 18 253 0z" />
        </g>
    </g>
</svg>